<svg xmlns="http://www.w3.org/2000/svg" viewBox="0 0 50.02 49.11"><path fill="#787878" d="M31.73 2.83c-4.6 0-12.86.04-15.72.1l9.07 39.26 8.8-39.36h-2.14z"/><path fill="#555" d="M36.36 4.62l7.4 30.25c1.23-5.4 3.66-16.34 3.62-16.5-.03-.14-7.78-9.78-11.02-13.75zM13.56 4.68c-3.18 3.97-10.9 13.75-10.93 13.9-.03.16 2.63 11.63 3.88 16.83z"/><path fill="#646464" d="M34.94 7.26l-8.68 38.77c3.38-1.6 13.77-6.66 16.22-7.92zM15 7.4L7.87 38.36c2.75 1.36 12.6 6.04 16 7.62z"/><path fill="none" stroke="#3c3c3c" stroke-width="1.25" d="M49.37 17.86c.25 1.06-4.08 20.3-4.76 21.16-.66.85-18.4 9.46-19.5 9.47-1.08 0-18.9-8.52-19.57-9.36C4.86 38.3.4 19.07.63 18 .9 16.96 13.14 1.5 14.12 1 15.1.55 34.83.5 35.8.96c.98.46 13.33 15.85 13.57 16.9z" stroke-linejoin="round"/></svg>